HIERARCHY
ROOT pelvis
{
  OFFSET 0 100 0
  CHANNELS 6 Xposition Yposition Zposition Zrotation Xrotation Yrotation
  JOINT pelvis_right_femur
  {
    OFFSET -10.78128 -3.44521 -0.5502486
    CHANNELS 3 Zrotation Xrotation Yrotation
    JOINT right_femur_tibia
    {
      OFFSET -0.8047443 -44.0398 -0.1307829
      CHANNELS 3 Zrotation Xrotation Yrotation
      JOINT right_tibia_foot
      {
        OFFSET 3.006224 -47.83518 -5
        CHANNELS 3 Zrotation Xrotation Yrotation
        End Site
        {
          OFFSET 0 -5 15
        }
      }
    }
  }
  JOINT pelvis_left_femur
  {
    OFFSET 10.78128 -3.44521 -0.5502486
    CHANNELS 3 Zrotation Xrotation Yrotation
    JOINT left_femur_tibia
    {
      OFFSET 0.8047443 -44.0398 -0.1307829
      CHANNELS 3 Zrotation Xrotation Yrotation
      JOINT left_tibia_foot
      {
        OFFSET -4.370144 -48.10324 -4.275266
        CHANNELS 3 Zrotation Xrotation Yrotation
        End Site
        {
          OFFSET 0 -5 15
        }
      }
    }
  }
  JOINT pelvis_spine1
  {
    OFFSET 0 6.468898 -3.129235
    CHANNELS 3 Zrotation Xrotation Yrotation
    JOINT spine1
    {
      OFFSET 0 23.15396 4.99043
      CHANNELS 3 Zrotation Xrotation Yrotation
      JOINT spine2
      {
        OFFSET 0 20.79997 -5.064912
        CHANNELS 3 Zrotation Xrotation Yrotation
        JOINT neck
        {
          OFFSET 0 14.38658 9.616178
          CHANNELS 3 Zrotation Xrotation Yrotation
          End Site
          {
            OFFSET 0 20 0
          }
        }
      }
      JOINT right_manubrium
      {
        OFFSET -5.722621 16.35077 3.967754
        CHANNELS 3 Zrotation Xrotation Yrotation
        JOINT right_clavicle
        {
          OFFSET -13.16364 1.694482 -4.693211
          CHANNELS 3 Zrotation Xrotation Yrotation
          JOINT right_humerus
          {
            OFFSET -28.5034 -0.3100689 -2.792744
            CHANNELS 3 Zrotation Xrotation Yrotation
            JOINT right_radius
            {
              OFFSET -25.15693 0.02248979 -1.271978
              CHANNELS 3 Zrotation Xrotation Yrotation
              End Site
              {
                OFFSET -15 0 0
              }
            }
          }
        }
      }
      JOINT left_manubrium
      {
        OFFSET 5.722621 16.35077 3.967754
        CHANNELS 3 Zrotation Xrotation Yrotation
        JOINT left_clavicle
        {
          OFFSET 13.16364 1.694482 -4.693211
          CHANNELS 3 Zrotation Xrotation Yrotation
          JOINT left_humerus
          {
            OFFSET 29.39168 -1.063119 -2.237045
            CHANNELS 3 Zrotation Xrotation Yrotation
            JOINT left_radius
            {
              OFFSET 24.59957 -0.9528479 0.9047498
              CHANNELS 3 Zrotation Xrotation Yrotation
              End Site
              {
                OFFSET 15 -0 -0
              }
            }
          }
        }
      }
    }
  }
}
MOTION
Frames: 7
Frame Time: 0.0416666666667
0 103.5113 0 1.233583 0.6017289 -0.1749189 3.445664 -17.28508 10.71907 -0 37.42828 -0 -5.469541 -18.30044 -3.540569 -7.511941 8.735398 -22.82445 -0 5.856481 -0 13.76119 -14.79254 29.32019 -4.142016 -4.505016 5.602941 2.879115 9.879064 -8.231585 1.563979 21.28278 6.064986 2.715244 -24.9988 9.303305 6.84966 -20.31787 11.50487 84.46209 37.6 -17.54751 -0 0 17.86612 -6.254658 7.699765 4.085533 6.230364 -19.11351 -0.008879692 -92.20321 19.93301 20.53011 0 0 -12.75909 14.94749 14.80588 -3.920913
0.3536967 103.3025 1.63382 1.06847 0.7892258 -0.3205967 3.890443 -18.80811 10.56079 -0 36.40907 -0 -5.469923 -17.2154 -3.314614 -7.438495 9.040784 -22.56838 -0 5.571735 -0 13.68213 -15.19338 29.14511 -3.991278 -4.245287 5.575711 2.833627 9.975175 -8.177094 1.57772 21.17059 6.18531 2.849761 -25.14399 9.369488 6.760158 -20.29504 11.52365 84.74323 37.65957 -17.85471 -0 0 17.51352 -6.217238 7.802055 4.01683 6.463134 -19.44049 -0.212811 -92.04358 20.19014 20.35228 0 0 -13.96143 15.10024 14.63588 -3.838389
0.720332 102.7153 4.052974 0.4562308 2.126749 -0.3558171 6.183727 -26.59011 9.926816 -0 28.7748 -0 -5.289978 -11.58439 -2.037442 -7.266889 10.66102 -20.77283 -0 5.476193 -0 14.05332 -16.86011 28.27261 -3.482424 -2.950801 5.545912 2.836487 10.48214 -7.986384 1.678907 20.37465 6.576484 3.390066 -25.8574 9.618582 6.198259 -19.99677 11.4906 86.04928 38.48318 -19.30913 -0 0 15.64014 -5.668631 7.884659 3.659947 7.577409 -20.82112 -1.02637 -90.46696 19.96901 18.68753 0 0 -20.17596 16.70213 12.1624 -4.934369
1.052865 101.7376 7.234868 0.08958898 2.519474 -0.1912179 6.791864 -31.01755 7.727386 -0 21.78558 -0 -5.590975 -7.209056 -1.0573 -6.992777 12.25793 -18.50581 -0 5.90427 -0 13.03995 -18.23618 25.69699 -3.119602 -2.173713 5.005193 2.996986 10.70785 -7.947748 1.558025 20.29579 6.776083 3.380338 -26.07315 9.586057 5.095182 -19.63032 11.54236 87.67012 36.87658 -20.79895 -0 0 13.28461 -7.002833 8.021836 4.479372 7.793812 -22.11441 -2.070006 -88.8346 19.82102 16.86978 0 0 -24.60689 16.61922 11.05265 -4.582357
1.325043 100.3427 11.38913 -0.005525297 2.451753 0.1982621 6.163935 -33.80292 4.025756 -0 13.43572 -0 -6.257444 -3.028555 -0.1689957 -6.794472 14.20228 -15.42471 -0 6.818291 -0 11.26103 -19.43662 21.81679 -2.829972 -1.871407 4.280891 3.229725 10.83334 -8.066954 1.309782 20.55614 6.725269 2.981327 -25.90858 9.195387 3.25805 -19.23509 11.56075 89.87673 33.19997 -22.64206 -0 0 10.25074 -9.583833 7.79369 6.078511 7.56791 -23.67062 -3.34749 -86.65088 19.08791 14.40865 0 0 -29.05325 15.83192 10.29499 -3.709367
1.519365 98.65505 16.45909 0.05981962 1.873681 0.7787074 4.878938 -34.31919 0.1682354 -0 6.771071 -0 -7.266253 -0.008812734 0.2007704 -6.670775 16.12116 -12.49895 -0 8.390968 -0 8.870746 -20.03301 17.86379 -2.505255 -2.154363 3.589322 3.310852 10.80934 -8.232889 1.10731 21.15001 6.475516 2.370624 -25.3448 8.676829 1.114831 -18.85387 11.4748 92.2893 28.38717 -24.39471 -0 0 7.131485 -12.57232 7.371734 7.783381 7.015814 -25.18916 -4.547793 -84.70393 18.598 12.09448 0 0 -32.5933 14.36776 10.59451 -1.999652
1.6349 96.92316 22.3466 0.109975 0.8991396 1.459017 3.889441 -33.16297 -2.75302 -0 2.986803 -0 -8.551718 2.059913 0.008091843 -6.574958 17.83046 -10.07281 -0 11.46245 -0 6.451596 -19.67946 14.73941 -2.024915 -2.846638 3.032942 3.160956 10.8137 -8.383594 1.027456 21.88398 6.149373 1.774836 -24.44821 8.212837 -0.9336011 -18.474 11.30653 94.69855 23.64849 -25.85903 -0 0 4.185555 -15.33145 7.037594 9.112637 6.357887 -26.56111 -5.553703 -83.20042 18.30967 10.17523 0 0 -35.11025 12.8216 11.60761 -0.09767614
